<?xml version="1.0" encoding="UTF-8" standalone="no"?>
<!-- Created with Inkscape (http://www.inkscape.org/) -->

<svg
   xmlns:dc="http://purl.org/dc/elements/1.1/"
   xmlns:cc="http://creativecommons.org/ns#"
   xmlns:rdf="http://www.w3.org/1999/02/22-rdf-syntax-ns#"
   xmlns:svg="http://www.w3.org/2000/svg"
   xmlns="http://www.w3.org/2000/svg"
   xmlns:xlink="http://www.w3.org/1999/xlink"
   xmlns:sodipodi="http://sodipodi.sourceforge.net/DTD/sodipodi-0.dtd"
   xmlns:inkscape="http://www.inkscape.org/namespaces/inkscape"
   width="2400"
   height="370"
   id="svg3835"
   version="1.1"
   inkscape:version="0.48.0 r9654"
   inkscape:export-filename="/home/fabio/Desktop/shadow.png"
   inkscape:export-xdpi="71.25"
   inkscape:export-ydpi="71.25"
   sodipodi:docname="shadow.svg">
  <defs
     id="defs3837">
    <linearGradient
       inkscape:collect="always"
       id="linearGradient3321">
      <stop
         style="stop-color:#2affa1;stop-opacity:1;"
         offset="0"
         id="stop3323" />
      <stop
         style="stop-color:#2affa1;stop-opacity:0;"
         offset="1"
         id="stop3325" />
    </linearGradient>
    <linearGradient
       inkscape:collect="always"
       id="linearGradient3329">
      <stop
         style="stop-color:#74a4ec;stop-opacity:1;"
         offset="0"
         id="stop3331" />
      <stop
         style="stop-color:#74a4ec;stop-opacity:0;"
         offset="1"
         id="stop3333" />
    </linearGradient>
    <linearGradient
       inkscape:collect="always"
       id="linearGradient3345">
      <stop
         style="stop-color:#ffe22a;stop-opacity:1;"
         offset="0"
         id="stop3347" />
      <stop
         style="stop-color:#ffe22a;stop-opacity:0;"
         offset="1"
         id="stop3349" />
    </linearGradient>
    <radialGradient
       inkscape:collect="always"
       xlink:href="#linearGradient3305"
       id="radialGradient3311"
       cx="732.10114"
       cy="465.98282"
       fx="732.10114"
       fy="465.98282"
       r="872.61597"
       gradientTransform="matrix(-1.1351459,0.73374078,-0.38161968,-0.5903911,1676.5754,343.40391)"
       gradientUnits="userSpaceOnUse" />
    <linearGradient
       inkscape:collect="always"
       id="linearGradient3305">
      <stop
         style="stop-color:#ff2aa0;stop-opacity:1;"
         offset="0"
         id="stop3307" />
      <stop
         style="stop-color:#ff2aa0;stop-opacity:0;"
         offset="1"
         id="stop3309" />
    </linearGradient>
    <radialGradient
       inkscape:collect="always"
       xlink:href="#linearGradient3305"
       id="radialGradient4422"
       gradientUnits="userSpaceOnUse"
       gradientTransform="matrix(-1.1351459,0.73374078,-0.38161968,-0.5903911,2161.7783,524.22694)"
       cx="732.10114"
       cy="465.98282"
       fx="732.10114"
       fy="465.98282"
       r="872.61597" />
    <radialGradient
       inkscape:collect="always"
       xlink:href="#linearGradient3345"
       id="radialGradient4424"
       gradientUnits="userSpaceOnUse"
       gradientTransform="matrix(-1.195715,0.63023591,-0.49215487,-0.93374082,2307.9123,752.89222)"
       cx="660.16357"
       cy="538.39819"
       fx="660.16357"
       fy="538.39819"
       r="707.15833" />
    <radialGradient
       inkscape:collect="always"
       xlink:href="#linearGradient3329"
       id="radialGradient4426"
       gradientUnits="userSpaceOnUse"
       gradientTransform="matrix(-0.5674147,1.2267731,-1.5373115,-0.71104683,2281.2344,499.05052)"
       cx="479.47125"
       cy="592.12042"
       fx="479.47125"
       fy="592.12042"
       r="507.99747" />
    <radialGradient
       inkscape:collect="always"
       xlink:href="#linearGradient3321"
       id="radialGradient4428"
       gradientUnits="userSpaceOnUse"
       gradientTransform="matrix(-0.33417195,1.3096797,-4.7396283,-1.209342,4176.5285,798.42271)"
       cx="418.55823"
       cy="608.15454"
       fx="418.55823"
       fy="608.15454"
       r="188.96323" />
  </defs>
  <sodipodi:namedview
     id="base"
     pagecolor="#ffffff"
     bordercolor="#666666"
     borderopacity="1.0"
     inkscape:pageopacity="0.0"
     inkscape:pageshadow="2"
     inkscape:zoom="0.49497475"
     inkscape:cx="1258.1711"
     inkscape:cy="696.67553"
     inkscape:document-units="px"
     inkscape:current-layer="layer1"
     showgrid="false"
     inkscape:window-width="1680"
     inkscape:window-height="1027"
     inkscape:window-x="1680"
     inkscape:window-y="0"
     inkscape:window-maximized="1" />
  <metadata
     id="metadata3840">
    <rdf:RDF>
      <cc:Work
         rdf:about="">
        <dc:format>image/svg+xml</dc:format>
        <dc:type
           rdf:resource="http://purl.org/dc/dcmitype/StillImage" />
        <dc:title></dc:title>
      </cc:Work>
    </rdf:RDF>
  </metadata>
  <g
     inkscape:label="Livello 1"
     inkscape:groupmode="layer"
     id="layer1"
     transform="translate(0,-682.36218)">
    <g
       id="g4400"
       transform="matrix(1.2593659,0,0,1,-382.92698,308.96578)">
      <path
         inkscape:connector-curvature="0"
         d="m 2407.8266,705.56326 c -2.0692,-6.11361 -5.5827,-11.5394 -8.8528,-17.04609 -7.3171,-12.32119 -10.3632,-18.39525 -20.2257,-30.45803 -5.9982,-7.33657 -12.7339,-14.03814 -19.1011,-21.05721 -8.2689,-7.5985 -16.2331,-15.54266 -24.8069,-22.79551 -45.2944,-38.31599 -96.806,-68.95043 -150.5737,-93.754 -16.3067,-7.52253 -33.0418,-14.08022 -49.5628,-21.12032 -53.4241,-19.39225 -56.096,-21.30055 -111.666,-37.55273 -20.5859,-6.02065 -41.1919,-12.03249 -62.0457,-17.04619 -37.271,-8.96056 -104.127,-21.3183 -141.2429,-26.77125 -29.3417,-4.31073 -58.8471,-7.42253 -88.2705,-11.13378 -160.838,-16.62365 -323.3133,-17.30596 -484.1408,-0.0719 -30.5973,3.27877 -61.0324,7.92693 -91.5486,11.8904 -30.2079,5.23595 -60.5161,9.92338 -90.6239,15.70783 -114.85769,22.06705 -229.85269,51.88438 -340.99549,88.31267 -27.2772,8.9404 -54.2481,18.79017 -81.3721,28.1852 -97.2112,35.19047 -192.7069,74.95394 -287.0087,117.27956 -20.5564,9.22633 -41.1299,18.42235 -61.4952,28.06305 -19.3808,9.17471 -38.4872,18.91821 -57.731,28.37733 -86.0762,44.83093 -170.586296,92.57811 -254.085596,142.0201 -40.2934,24.49352 -80.904,48.83894 -118.595604,77.2632 -2.8863,2.51364 -5.7725,5.02723 -8.6586,7.54081 l 28.9194,-75.43364 c 2.5302,-1.18712 5.0605,-2.37412 7.5907,-3.56121 C -72.181286,856.79013 -36.243286,840.8591 -0.66458571,824.11453 78.754514,788.38864 158.64641,753.71102 238.66331,719.34857 c 159.6525,-70.59105 -53.0994,23.74265 117.8359,-52.97261 94.3066,-42.32451 189.8071,-82.08604 287.0232,-117.27362 27.1261,-9.3943 54.0989,-19.24315 81.378,-28.18279 111.1505,-36.42514 226.1528,-66.24022 341.01789,-88.30317 30.1102,-5.78348 60.4209,-10.46973 90.6313,-15.7046 30.5188,-3.96234 60.9564,-8.60932 91.5563,-11.88703 160.8402,-17.22831 323.3275,-16.54084 484.1769,0.0884 29.426,3.71247 58.934,6.82553 88.2781,11.13739 49.7494,7.3103 92.4812,16.47621 141.6735,25.90161 21.4681,4.11339 43.0402,7.69774 64.4441,12.13369 53.7185,11.13316 63.9846,14.73462 116.0797,28.85317 43.9652,14.01376 57.4191,17.42069 99.6309,34.22106 49.638,19.75614 97.2412,44.13662 143.7534,70.3182 7.9417,4.29673 15.8122,8.72806 23.8254,12.89029 2.4263,1.26028 25.0734,12.07482 29.986,15.12354 4.6489,2.88514 8.215,7.5951 13.3946,9.74667 l -45.5219,80.12446 z"
         id="path3263"
         style="fill:url(#radialGradient4422);fill-opacity:1;stroke:none" />
      <path
         inkscape:connector-curvature="0"
         d="m 2374.8807,918.94986 c -0.3754,-1.63776 -0.6211,-3.31089 -1.126,-4.9134 -7.9207,-25.1332 -26.632,-47.18121 -42.5383,-67.44935 -7.5448,-8.31805 -15.0375,-16.68356 -22.6344,-24.95402 -11.097,-12.08085 -21.4769,-24.88226 -33.4469,-36.09897 -30.8087,-28.86997 -66.3748,-54.48202 -102.6233,-75.91322 -34.8805,-20.62245 -101.5294,-52.24822 -137.253,-69.70161 -25.2342,-11.29262 -50.2729,-23.03252 -75.7028,-33.87791 -52.4446,-22.36685 -106.6362,-43.2036 -160.3517,-62.2847 -56.1266,-19.93758 -110.5672,-37.66333 -167.851,-54.04886 -29.1234,-8.33052 -58.5182,-15.68091 -87.7773,-23.52137 -125.2721,-31.38424 -253.107,-51.45045 -381.4905,-64.68804 -81.4626,-8.39956 -115.3162,-9.8971 -196.63229,-15.27234 -152.484,-8.81671 -305.5421,-7.96414 -457.959,1.88756 -27.0215,1.74654 -53.9955,4.16326 -80.9933,6.24493 -69.6461,7.02773 -139.6593,13.89096 -207.9864,29.81127 -19.3037,4.49766 -38.3099,10.20523 -57.3221,15.80841 -40.5107,11.93908 -52.9075,16.87941 -91.266296,30.49625 l 17.3725,-33.27396 c 35.298696,-4.79878 43.988196,-6.03444 81.074496,-10.82479 17.5024,-2.2608 35.0461,-4.21064 52.5203,-6.68011 20.5922,-2.91018 41.0895,-6.46319 61.6695,-9.45757 77.8929,-11.33329 63.906,-9.02607 144.8433,-17.5435 26.9991,-2.08093 53.9744,-4.49697 80.9972,-6.2427 152.4236,-9.84775 305.4883,-10.69676 457.9787,-1.87665 81.32089,5.37712 115.17309,6.87512 196.64059,15.27709 128.3918,13.24146 256.2346,33.31276 381.5143,64.7018 29.2609,7.84157 58.6575,15.19306 87.7828,23.52462 57.2851,16.38705 111.7326,34.11573 167.8606,54.05467 53.7202,19.08347 107.9134,39.9217 160.3626,62.29116 25.4316,10.84649 50.4722,22.5875 75.7082,33.88124 23.7606,11.60889 47.7029,22.85251 71.2816,34.82678 89.9112,45.66063 40.1978,23.84715 127.5031,64.98324 18.0623,8.51043 36.2831,16.68768 54.6084,24.61542 14.9127,6.45138 30.4555,11.45901 45.0913,18.5159 9.8774,4.7626 18.8363,11.23272 28.2547,16.84911 15.2735,9.8007 23.5795,14.90709 37.8925,24.82259 3.7561,2.60195 14.9116,10.62576 19.2158,14.24617 1.578,1.32766 2.9256,2.91047 4.4614,4.28735 1.0168,0.91161 2.1259,1.71455 3.189,2.5718 l -52.8683,74.92571 z"
         id="path3265"
         style="fill:url(#radialGradient4424);fill-opacity:1;stroke:none" />
      <path
         inkscape:connector-curvature="0"
         d="m 2133.8641,478.25346 c -18.5204,-12.27041 -39.2677,-21.12196 -60.0581,-28.72849 -33.9165,-12.40881 -45.211,-14.75309 -81.5154,-24.95345 -28.5159,-7.53745 -92.8227,-25.10495 -119.9384,-29.69142 -24.0302,-4.06455 -48.4098,-5.71515 -72.6635,-8.10912 -64.4257,-6.35918 -107.2267,-9.32502 -173.1776,-11.81743 -33.9089,-1.28145 -67.8463,-1.64195 -101.7694,-2.46291 -171.6742,-1.39161 -343.738,8.14574 -513.6035,33.73451 -30.50159,4.59478 -60.82059,10.32921 -91.23089,15.4938 -104.4079,20.26949 -208.138,45.63261 -308.072,82.41865 -60.7808,22.37371 -70.0124,28.16977 -128.311,55.40505 -60.9671,30.85153 -118.2297,68.36212 -172.8075,109.35033 -17.4771,13.1254 -34.8378,26.441 -51.5006,40.58578 -35.4832,30.12101 -55.7845,51.94319 -88.2307,84.67093 -33.8923,36.04131 -66.1054,73.57325 -95.969096,113.01833 -7.8244,10.33485 -15.3103,20.92153 -22.9655,31.38225 l -7.2422,-42.98758 c 40.9185,-38.82925 81.122296,-78.48023 124.023096,-115.14807 54.3009,-44.89619 32.4346,-27.31902 90.0995,-72.84633 17.1518,-13.5417 34.0364,-27.43236 51.5147,-40.55005 54.5992,-40.97754 111.8553,-78.5131 172.842,-109.35504 58.3079,-27.23614 67.5422,-33.03274 128.3317,-55.4075 99.9443,-36.78646 203.6841,-62.1514 308.1019,-82.42185 30.4126,-5.16482 60.734,-10.89944 91.23789,-15.49448 169.8753,-25.58954 341.9488,-35.12805 513.6329,-33.73707 83.7258,2.02582 113.538,1.78778 195.7254,7.39545 26.4503,1.80471 52.8415,4.40351 79.2371,6.88373 24.2237,2.27616 48.3306,5.91768 72.6167,7.38509 3.5524,0.21462 108.8472,1.39176 118.0634,1.49812 32.2045,0.427 48.8323,1.15099 79.9605,-0.15917 19.4627,-0.8192 39.3146,-2.36156 58.128,-7.76197 l 5.5406,92.40991 z"
         id="path3267"
         style="fill:url(#radialGradient4426);fill-opacity:1;stroke:none" />
      <path
         inkscape:connector-curvature="0"
         d="m 2089.5471,684.06225 c -4.3738,-4.08422 -11.6351,-10.88688 -15.2677,-14.11189 -8.1173,-7.20677 -15.8636,-14.87991 -24.5191,-21.43061 -37.7835,-28.59614 -80.8401,-49.16976 -122.9102,-70.40884 -17.4907,-7.90031 -34.8146,-16.18163 -52.4725,-23.70094 -18.3434,-7.81109 -36.9232,-15.05987 -55.507,-22.27993 -39.1882,-15.22488 -83.7124,-31.86937 -123.8986,-43.96035 -52.3991,-15.76536 -83.3814,-21.59306 -137.1349,-33.55546 -63.3564,-11.06335 -90.0253,-16.85087 -154.6485,-23.45095 -29.8337,-3.047 -59.7645,-5.12361 -89.6971,-6.96027 -57.8799,-3.55142 -127.9871,-5.69308 -186.0065,-6.35079 -29.6258,-0.33586 -59.2555,0.0108 -88.8833,0.0172 -122.59999,2.20724 -246.10999,6.78168 -366.76559,30.57037 -21.0814,4.15646 -41.8964,9.56613 -62.8446,14.34921 -74.912,19.57192 -148.088,45.58008 -218.47,77.83953 -34.4556,15.79277 -48.6973,23.68306 -81.7105,40.83629 -28.2578,16.34637 -36.2327,20.14586 -62.2619,38.15567 -8.0613,5.57767 -15.7715,11.64633 -23.6573,17.46949 l -15.9704,-51.87774 c 8.6213,-3.68134 17.1786,-7.51626 25.8637,-11.04404 22.5272,-9.15016 43.5547,-16.67601 66.4509,-25.12411 13.4786,-4.69609 26.8826,-9.61209 40.4359,-14.0883 21.8001,-7.19975 74.1187,-23.05536 95.0989,-29.28565 57.3217,-17.02201 114.9066,-33.25563 173.3129,-46.19191 50.9965,-10.37307 76.7393,-16.37887 128.4999,-23.77232 99.8371,-14.2607 200.8384,-18.20392 301.55609,-19.67351 29.6291,-0.007 59.2601,-0.35377 88.8874,-0.0183 58.0241,0.65706 128.132,2.79806 186.0166,6.34829 29.9357,1.8361 59.8697,3.91173 89.7067,6.95793 64.6268,6.59816 91.3047,12.38602 154.665,23.44719 23.5798,5.24629 47.2752,9.99839 70.7395,15.73878 22.2625,5.44634 44.278,11.85638 66.4093,17.81352 46.497,12.51579 76.2445,20.13003 121.8469,34.34584 18.3093,5.70755 36.4186,12.03815 54.6336,18.03974 17.017,5.60701 34.0419,11.19061 51.0628,16.78594 27.8257,9.20421 56.804,19.12024 85.0343,27.28262 10.2618,2.96708 20.4919,6.18362 30.9877,8.16938 11.0521,2.09092 22.8131,0.72871 33.8461,3.4862 l 17.5715,89.63265 z"
         id="path3273"
         style="fill:url(#radialGradient4428);fill-opacity:1;stroke:none" />
    </g>
  </g>
</svg>
